<?xml version='1.0' encoding='utf-8'?>
<svg width="250.089999mm" height="135.946827mm" viewBox="-26.786986 -15.365817 59.52112 32.355182" version="1.1" xmlns="http://www.w3.org/2000/svg">
  <g transform="scale(1,-1)" stroke-linecap="round">
    <g fill="none" stroke="rgb(0,0,0)" stroke-width="0.021419892127972878" id="Visible">
      <line x1="18.133748" y1="0.048483" x2="18.42771" y2="0.688751" />
      <line x1="18.317214" y1="1.491624" x2="18.42771" y2="0.688751" />
      <line x1="18.133748" y1="0.048483" x2="13.280249" y2="1.999761" />
      <line x1="18.317214" y1="1.491624" x2="13.868172" y2="3.280296" />
      <line x1="13.280249" y1="1.999761" x2="13.868172" y2="3.280296" />
      <line x1="30.186177" y1="9.637883" x2="30.480139" y2="9.445072" />
      <line x1="30.186177" y1="9.637883" x2="18.42771" y2="0.688751" />
      <line x1="30.480139" y1="9.028533" x2="30.480139" y2="9.445072" />
      <line x1="18.133748" y1="-0.368056" x2="30.480139" y2="9.028533" />
      <line x1="18.133748" y1="-0.368056" x2="18.133748" y2="0.048483" />
      <line x1="29.487757" y1="9.9933" x2="30.186177" y2="9.637883" />
      <line x1="29.487757" y1="9.9933" x2="18.317214" y2="1.491624" />
      <line x1="20.15604" y1="-16.593033" x2="13.280249" y2="-13.828722" />
      <line x1="20.15604" y1="-16.593033" x2="20.15604" y2="-0.764549" />
      <line x1="20.15604" y1="-0.764549" x2="19.347123" y2="-0.439336" />
      <line x1="19.347123" y1="-0.855875" x2="19.347123" y2="-0.439336" />
      <line x1="19.347123" y1="-0.855875" x2="18.133748" y2="-0.368056" />
      <line x1="13.280249" y1="-13.828722" x2="13.280249" y2="1.999761" />
      <line x1="29.487757" y1="9.9933" x2="25.038716" y2="11.781972" />
      <line x1="13.868172" y1="3.280296" x2="14.774799" y2="3.970311" />
      <line x1="18.961155" y1="7.156463" x2="25.038716" y2="11.781972" />
      <line x1="13.280249" y1="1.999761" x2="13.059255" y2="2.427359" />
      <line x1="13.059255" y1="2.427359" x2="13.302781" y2="2.957773" />
      <line x1="13.868172" y1="3.280296" x2="13.302781" y2="2.957773" />
      <line x1="30.977267" y1="8.82867" x2="30.480139" y2="9.028533" />
      <line x1="20.743963" y1="-16.978654" x2="13.868172" y2="-14.214344" />
      <line x1="13.868172" y1="-14.214344" x2="13.280249" y2="-13.828722" />
      <line x1="20.743963" y1="-16.978654" x2="20.15604" y2="-16.593033" />
      <line x1="20.15604" y1="-16.593033" x2="21.55288" y2="-16.125717" />
      <line x1="21.55288" y1="-16.125717" x2="21.55288" y2="-0.987378" />
      <line x1="21.55288" y1="-0.987378" x2="20.15604" y2="-0.764549" />
      <line x1="20.743963" y1="0.515985" x2="20.339505" y2="0.678592" />
      <line x1="19.641085" y1="0.200931" x2="20.339505" y2="0.678592" />
      <line x1="20.15604" y1="-0.764549" x2="20.743963" y2="0.515985" />
      <line x1="19.347123" y1="-0.439336" x2="19.641085" y2="0.200931" />
      <line x1="31.399552" y1="9.150063" x2="19.641085" y2="0.200931" />
      <line x1="13.280249" y1="-13.828722" x2="13.059255" y2="-12.710981" />
      <line x1="13.059255" y1="-12.710981" x2="13.059255" y2="2.427359" />
      <line x1="13.302781" y1="2.957773" x2="14.690257" y2="4.013753" />
      <line x1="18.906453" y1="7.222615" x2="23.986273" y2="11.088764" />
      <line x1="25.038716" y1="11.781972" x2="23.986273" y2="11.088764" />
      <line x1="32.723424" y1="-7.624041" x2="32.723424" y2="7.514298" />
      <line x1="32.723424" y1="7.514298" x2="32.502431" y2="8.63204" />
      <line x1="31.399552" y1="9.150063" x2="31.510049" y2="9.180268" />
      <line x1="31.914507" y1="9.017661" x2="31.510049" y2="9.180268" />
      <line x1="31.914507" y1="9.017661" x2="32.502431" y2="8.63204" />
      <line x1="20.743963" y1="-16.978654" x2="21.796406" y2="-16.285447" />
      <line x1="21.796406" y1="-16.285447" x2="21.55288" y2="-16.125717" />
      <path d="M 27.138152,2.358915 A 8.0,3.9182885138966257 -111.90186488221444 0,1 22.627064,-9.625211" />
      <path d="M 22.627064,-9.625211 A 8.0,3.9182885138966257 -111.90186488221444 1,1 27.564538,2.655986" />
      <path d="M 27.564538,2.655986 A 8.0,3.9182885138966257 -111.90186488221444 0,1 27.138152,2.358915" />
      <line x1="21.796406" y1="-16.285447" x2="32.479898" y2="-8.154456" />
      <line x1="32.479898" y1="-8.154456" x2="32.723424" y2="-7.624041" />
      <line x1="21.55288" y1="-0.987378" x2="21.796406" y2="-0.456963" />
      <line x1="32.479898" y1="7.674027" x2="32.723424" y2="7.514298" />
      <line x1="21.796406" y1="-0.456963" x2="32.479898" y2="7.674027" />
      <line x1="21.796406" y1="-0.456963" x2="20.743963" y2="0.515985" />
      <line x1="31.510049" y1="9.180268" x2="20.339505" y2="0.678592" />
      <line x1="20.743963" y1="0.515985" x2="31.914507" y2="9.017661" />
      <line x1="32.479898" y1="7.674027" x2="31.914507" y2="9.017661" />
      <path d="M 22.520903,-9.089457 A 7.0,3.4285024496595473 -111.90186488221444 0,1 23.718109,-10.475265" />
      <path d="M 23.718109,-10.475265 A 7.0,3.4285024496595473 -111.90186488221444 1,1 28.940361,2.514272" />
      <path d="M 28.940361,2.514272 A 7.0,3.4285024496595473 -111.90186488221444 0,1 27.117076,2.342808" />
      <path d="M 22.702151,-9.496403 A 7.0,3.4285024496595473 -111.90186488221444 0,1 27.52957,2.511049" />
      <path d="M 22.455493,-7.244588 A 4.5,2.204037289066852 -111.90186488221444 0,1 25.792868,1.056614" />
      <path d="M 23.331044,-3.289736 A 4.5,2.204037289066852 -111.90186488221444 0,1 23.687257,-2.40371" />
      <path d="M -26.776276,-9.146874 L -26.776276,5.991467" />
      <path d="M -26.776276,5.991467 C -26.695101,6.168272 -26.613926,6.345077 -26.532751,6.521882" />
      <line x1="-26.532751" y1="6.521882" x2="-15.849258" y2="14.652873" />
      <path d="M -15.849258,14.652873 L -14.785021,15.355068" />
      <line x1="-20.382088" y1="11.095243" x2="-14.784996" y2="15.355076" />
      <line x1="-20.382088" y1="11.095243" x2="-25.97918" y2="6.835409" />
      <path d="M -26.532751,6.521882 L -25.979318,6.835314" />
      <path d="M -25.979271,-10.659205 C -26.175403,-10.530777 -26.371538,-10.402356 -26.567676,-10.273943" />
      <path d="M -26.776276,-9.146874 C -26.710793,-9.500769 -26.64531,-9.854665 -26.579827,-10.208561 C -26.575933,-10.229609 -26.57092,-10.256708 -26.567762,-10.273778" />
      <path d="M -26.567762,-10.273905 L -26.567762,5.554579" />
      <path d="M -26.776276,5.991467 L -26.567762,5.554452" />
      <path d="M -26.567676,5.554541 C -26.371534,5.981506 -26.175395,6.408474 -25.979259,6.835444" />
      <line x1="-9.461713" y1="6.704867" x2="-20.382088" y2="11.095243" />
      <path d="M 15.917007,7.070077 A 16.0,8.850486571663517 -3.229199552095536e-15 0,1 -9.461713,6.704867" />
      <path d="M -14.784996,15.355076 C -11.565659,14.166976 -7.944673,13.413494 -4.225488,12.856521 C -0.505351,12.299978 3.319925,11.939089 6.968866,11.551312" />
      <path d="M 17.860141,7.940173 A 1.2499999999999982,0.6914442634112113 180.0 1,0 15.917007,7.070077" />
      <path d="M 6.968866,11.551312 A 18.5,10.233375098485944 180.0 0,0 17.314172,8.296317" />
      <path d="M 17.314172,8.296317 A 18.5,10.233375098485944 180.0 0,0 17.860141,7.940173" />
      <path d="M -25.979191,-10.65924 C -24.785553,-11.180692 -23.687793,-11.756118 -22.66747,-12.37052" />
      <path d="M -26.567677,-10.273942 C -25.290178,-10.833871 -24.121483,-11.460641 -23.037377,-12.136095" />
      <path d="M -23.037377,-12.136095 Q -21.766105,-12.93216 -20.633146,-13.804794" />
      <path d="M -20.633146,-13.804794 L -20.049429,-14.200439" />
      <path d="M -2.255484,-6.76064 A 16.0,8.850486571663518 180.0 0,0 -8.482912,-4.375174" />
      <path d="M -8.482912,-4.375174 A 16.0,8.850486571663518 180.0 0,0 -9.461713,6.704867" />
      <path d="M -25.97918,6.835409 C -22.942432,5.508343 -20.529035,3.83579 -18.423225,2.05091 C -16.31786,0.265396 -14.516471,-1.635832 -12.723282,-3.435984" />
      <path d="M -3.151803,-8.051593 A 1.2499999999999982,0.6914442634112112 -3.3849831023676274e-15 0,1 -1.768966,-6.947004" />
      <path d="M -1.768966,-6.947004 A 1.2499999999999982,0.6914442634112112 -3.3849831023676274e-15 0,1 -2.255484,-6.76064" />
      <path d="M -12.723282,-3.435984 A 18.5,10.233375098485944 -1.799873961125256e-15 0,1 -3.151803,-8.051593" />
      <path d="M -26.567677,5.554541 C -20.751956,3.005502 -17.191451,-0.928595 -13.599186,-4.535951" />
      <path d="M -20.633112,-10.254073 C -20.62989,-9.992402 -20.622446,-9.711556 -20.604709,-9.440338 C -20.587297,-9.167211 -20.559649,-8.904706 -20.521765,-8.652823 C -20.445445,-8.1491 -20.328343,-7.702337 -20.170459,-7.312532 C -19.90497,-6.654384 -19.524811,-6.187446 -19.086972,-5.912862 C -18.648775,-5.636115 -18.157554,-5.543107 -17.653217,-5.573275 C -16.846261,-5.623606 -16.008849,-5.973762 -15.167629,-6.454381" />
      <path d="M -15.167629,-6.454381 C -14.650244,-6.750661 -14.129169,-7.100317 -13.599186,-7.479669" />
      <path d="M -20.633146,-13.804794 C -20.633182,-13.202808 -20.63308,-12.650513 -20.634257,-12.089211 C -20.63447,-11.527652 -20.640666,-10.944374 -20.633112,-10.254073" />
      <line x1="-12.69738" y1="-8.655842" x2="-12.272506" y2="-8.332479" />
      <line x1="-7.682259" y1="-4.838935" x2="-5.926183" y2="-3.502421" />
      <path d="M -5.926183,-3.502421 C -5.926195,-2.900515 -5.92616,-2.347634 -5.926553,-1.786325 C -5.926632,-1.224445 -5.928646,-0.644561 -5.926193,0.038153" />
      <path d="M 15.139754,5.88896 A 15.0,8.297331160934547 -3.229199552095536e-15 0,1 -8.652797,5.546576" />
      <line x1="-8.652797" y1="5.546576" x2="-9.461713" y2="6.704867" />
      <path d="M 18.637394,7.455134 A 2.2499999999999982,1.2445996741401812 180.0 0,0 19.138574,6.672047" />
      <path d="M 19.138574,6.672047 A 2.2499999999999982,1.2445996741401812 180.0 0,0 15.139754,5.88896" />
      <path d="M 18.061913,7.830528 A 19.5,10.786530509214913 180.0 0,0 18.637394,7.455134" />
      <path d="M -5.926193,0.038153 C -5.925197,0.559821 -5.872009,1.102923 -5.750578,1.599077 C -5.630153,2.099716 -5.443608,2.564831 -5.190945,2.994421 C -5.148928,3.065631 -5.10512,3.135716 -5.059519,3.204676" />
      <path d="M -19.468577,-13.809264 L -20.049429,-14.200439" />
      <line x1="-12.69738" y1="-8.655842" x2="-19.468577" y2="-13.809264" />
      <path d="M -19.468577,-13.809264 C -19.468564,-13.207339 -19.4686,-12.654512 -19.468207,-12.092605 C -19.468128,-11.530605 -19.466113,-10.947655 -19.468566,-10.268674" />
      <path d="M -8.095356,-4.608068 A 15.0,8.297331160934549 180.0 0,0 -11.519047,0.668381" />
      <path d="M -11.519047,0.668381 A 15.0,8.297331160934549 180.0 0,0 -8.652797,5.546576" />
      <path d="M -3.51033,-9.401052 A 2.2499999999999982,1.244599674140181 -3.3849831023676274e-15 0,1 -0.453643,-8.239195" />
      <path d="M -0.453643,-8.239195 A 2.2499999999999982,1.244599674140181 -3.3849831023676274e-15 0,1 -1.021225,-7.412793" />
      <path d="M -13.599186,-4.535951 A 19.5,10.786530509214913 -1.799873961125256e-15 0,1 -3.51033,-9.401052" />
      <path d="M -13.599186,-7.479669 Q -13.067119,-7.861397 -12.410007,-8.251155" />
      <path d="M -12.410007,-8.251155 C -11.239083,-8.944591 -9.754147,-9.645708 -8.023803,-10.255511 C -6.646396,-10.742037 -5.111641,-11.169559 -3.51033,-11.493726" />
      <path d="M -19.468566,-10.268674 C -19.470945,-9.749575 -19.435963,-9.220329 -19.362963,-8.761035 C -19.289967,-8.296493 -19.178451,-7.888481 -19.028414,-7.536998 C -18.826033,-7.062648 -18.554092,-6.705497 -18.238301,-6.466025" />
      <path d="M -18.238301,-6.466025 C -17.764339,-6.10552 -17.200101,-6.004834 -16.615056,-6.069064 C -16.020391,-6.134703 -15.401867,-6.365579 -14.777944,-6.686787" />
      <line x1="-12.69738" y1="-8.655842" x2="-12.69738" y2="-8.077621" />
      <path d="M -9.14847,-2.414257 A 8.0,3.9182885138966257 68.09813511778556 0,0 -9.597524,-3.394711" />
      <path d="M 15.139754,3.782113 Q 15.015056,3.864394 14.886539,3.944303" />
      <path d="M 14.886539,3.944303 C 14.112775,4.425807 13.224162,4.846295 12.259458,5.181679 C 10.97647,5.629015 9.561774,5.923147 8.119067,6.051165 C 6.675147,6.180529 5.205988,6.145878 3.780436,5.97283 C 1.102458,5.650652 -1.411024,4.840476 -3.591029,3.819338" />
      <path d="M -8.652797,4.296959 Q -8.510063,4.405556 -8.361894,4.498789" />
      <path d="M -8.361894,4.498789 C -7.724054,4.902357 -7.024971,5.071545 -6.379601,5.056744 C -5.822836,5.045461 -5.300881,4.908278 -4.83218,4.690831 C -4.363109,4.472719 -3.946277,4.173592 -3.591031,3.81934" />
      <line x1="-8.652797" y1="4.296959" x2="-8.652797" y2="5.546576" />
      <path d="M 19.138574,4.587432 C 19.138376,4.2785 18.930196,3.987822 18.577279,3.766237" />
      <path d="M 18.577279,3.766237 C 18.209739,3.534434 17.674378,3.374608 17.069002,3.345204 C 16.73459,3.32869 16.380692,3.353768 16.050742,3.423977 C 15.720498,3.493617 15.418651,3.608376 15.18713,3.751881" />
      <path d="M 15.18713,3.751881 L 15.139754,3.782113" />
      <path d="M 15.305507,3.678816 C 14.571785,4.105227 13.759958,4.474742 12.88772,4.780931 C 11.536045,5.255796 10.049439,5.567179 8.535506,5.701078 C 7.020214,5.836345 5.480397,5.796421 3.984437,5.606434 C 1.233229,5.259989 -1.35867,4.40614 -3.658941,3.299328" />
      <path d="M -3.658941,3.299329 C -4.119237,3.334993 -4.57543,3.315743 -5.019505,3.214101 C -5.463715,3.111708 -5.8958,2.927274 -6.311023,2.611587" />
      <path d="M -6.311023,2.611587 C -6.313648,2.609584 -6.316272,2.60758 -6.318896,2.605577 C -6.830671,2.217298 -7.314091,1.611501 -7.77262,0.736688 C -8.232908,-0.129786 -8.667928,-1.262551 -9.14847,-2.414257" />
      <path d="M 17.826362,3.294243 C 17.622485,3.16564 17.32579,3.076543 16.991564,3.059191 C 16.800384,3.049091 16.597782,3.063487 16.410271,3.104493 C 16.315395,3.125224 16.227421,3.151612 16.146346,3.183657 C 16.063684,3.216973 16.00542,3.246281 15.908451,3.306421" />
      <path d="M 15.908451,3.306421 L 15.907762,3.306848" />
      <path d="M -16.24629,-7.816265 A 8.0,3.9182885138966257 -111.90186488221444 0,1 -13.203714,-7.752855" />
      <path d="M -8.652797,4.296959 C -9.3658,3.759123 -9.92958,2.940773 -10.314398,2.062049 C -10.763049,1.043586 -11.010012,-0.049478 -11.168837,-1.114088" />
      <path d="M -3.51033,-11.493726 C -3.17369,-11.562251 -2.814142,-11.584067 -2.476211,-11.563484 C -2.137546,-11.543163 -1.819906,-11.481662 -1.544864,-11.389813 C -1.343792,-11.322381 -1.167149,-11.240778 -1.014936,-11.145003" />
      <path d="M -1.014936,-11.145003 C -0.66203,-10.923422 -0.453836,-10.632743 -0.453643,-10.32381" />
      <path d="M -11.509687,-8.78365 C -10.4092,-9.435614 -9.017216,-10.087964 -7.395633,-10.656324 C -6.754985,-10.881037 -6.076304,-11.093333 -5.372787,-11.28626 C -5.014458,-11.384471 -4.648918,-11.478218 -4.276168,-11.567502 C -3.905925,-11.655828 -3.51971,-11.744657 -3.178174,-11.808167 C -3.175395,-11.808677 -3.172615,-11.809187 -3.169835,-11.809696" />
      <path d="M -16.820771,-6.053431 C -16.889536,-6.335576 -16.89075,-6.627321 -16.820012,-6.90362" />
      <path d="M -16.820012,-6.90362 C -16.732408,-7.249989 -16.531277,-7.569662 -16.24629,-7.816265" />
      <path d="M -3.169835,-11.809696 C -3.035277,-11.834377 -2.954857,-11.844359 -2.858293,-11.85078 C -2.763707,-11.856645 -2.669176,-11.856567 -2.5747,-11.850544 C -2.385484,-11.837683 -2.213656,-11.80514 -2.059217,-11.752913 C -1.94799,-11.71537 -1.850199,-11.670063 -1.765846,-11.616995" />
      <path d="M -10.401,-1.879962 A 7.0,3.4285024496595473 68.09813511778556 0,0 -10.56144,-2.248757" />
      <path d="M -3.737411,3.31051 L -3.658941,3.299329" />
      <path d="M -3.674519,3.739335 Q -3.658265,3.544898 -3.73741,3.31051" />
      <path d="M -3.674519,3.739335 L -3.591028,3.819337" />
      <path d="M -5.421778,3.707736 Q -4.524257,3.710795 -3.674519,3.739335" />
      <path d="M -8.773742,4.201304 C -8.305979,4.412179 -7.830426,4.49171 -7.388678,4.473316 C -7.009422,4.457839 -6.653803,4.373095 -6.329018,4.242633" />
      <path d="M -6.329018,4.242633 Q -5.824135,4.035356 -5.421781,3.707723" />
      <path d="M -5.418807,3.503529 Q -4.613689,3.407778 -3.73741,3.31051" />
      <path d="M -5.418807,3.503529 C -6.20292,3.561769 -6.960415,3.47056 -7.674356,2.945049 C -8.155251,2.592197 -8.616037,2.010369 -9.063902,1.155353 C -9.512304,0.309161 -9.948553,-0.797639 -10.401,-1.879962" />
      <path d="M -16.611593,-6.606719 A 7.0,3.4285024496595473 -111.90186488221444 0,1 -16.117422,-6.911156" />
      <path d="M -16.117422,-6.911156 A 7.0,3.4285024496595473 -111.90186488221444 0,1 -14.5297,-6.843643" />
      <path d="M -16.865987,-6.327499 Q -16.756481,-6.481044 -16.611593,-6.606719" />
      <path d="M -5.421777,3.707731 Q -5.401645,3.615534 -5.418806,3.50353" />
      <line x1="-13.599186" y1="-7.479669" x2="-13.599186" y2="-4.535951" />
      <path d="M -13.599186,-4.535951 L -12.723282,-3.435984" />
      <line x1="15.139754" y1="5.88896" x2="15.917007" y2="7.070077" />
      <line x1="18.637394" y1="7.455134" x2="17.860141" y2="7.940173" />
      <path d="M -19.468566,-10.268674 L -20.633112,-10.254073" />
      <line x1="-3.51033" y1="-9.401052" x2="-3.151803" y2="-8.051593" />
      <line x1="-3.51033" y1="-11.493726" x2="-3.51033" y2="-9.401052" />
      <line x1="-9.14847" y1="-2.414257" x2="-5.926193" y2="0.038153" />
      <line x1="15.139754" y1="3.782113" x2="15.139754" y2="5.88896" />
      <line x1="-16.24629" y1="-7.816265" x2="-19.468566" y2="-10.268674" />
      <path d="M -3.169835,-11.809696 L -3.51033,-11.493726" />
      <path d="M -10.401,-1.879962 L -9.14847,-2.414257" />
      <path d="M -16.611593,-6.606719 L -16.24629,-7.816265" />
      <line x1="17.314172" y1="8.296317" x2="18.061913" y2="7.830528" />
      <line x1="-1.768966" y1="-6.947004" x2="-1.021225" y2="-7.412793" />
      <line x1="19.138574" y1="6.672047" x2="19.138574" y2="4.587432" />
      <line x1="-0.453643" y1="-8.239195" x2="-0.453643" y2="-10.32381" />
      <path d="M -11.509687,-8.78365 L -12.410007,-8.251155" />
      <path d="M 17.826362,3.294243 L 18.577279,3.766237" />
      <path d="M 15.908451,3.306421 L 15.856568,3.33851 L 15.755486,3.400979 L 15.567357,3.517167 L 15.18713,3.751881" />
      <path d="M -1.765846,-11.616995 L -1.014936,-11.145003" />
    </g>
    <g fill="none" stroke="rgb(99,99,99)" stroke-width="0.021419892127972878" id="Hidden" stroke-dasharray="0.000544 0.064532">
      <line x1="14.774799" y1="3.970311" x2="18.961155" y2="7.156463" />
      <line x1="30.480139" y1="9.445072" x2="25.626639" y2="11.39635" />
      <line x1="25.038716" y1="11.781972" x2="25.626639" y2="11.39635" />
      <line x1="32.502431" y1="-7.196444" x2="25.626639" y2="-4.432134" />
      <line x1="32.502431" y1="-7.196444" x2="32.502431" y2="8.63204" />
      <line x1="32.502431" y1="8.63204" x2="31.693514" y2="8.957253" />
      <line x1="31.693514" y1="8.540714" x2="31.693514" y2="8.957253" />
      <line x1="31.693514" y1="8.540714" x2="30.977267" y2="8.82867" />
      <line x1="25.626639" y1="-4.432134" x2="25.626639" y2="11.39635" />
      <line x1="19.347123" y1="-0.855875" x2="31.693514" y2="8.540714" />
      <line x1="31.399552" y1="9.150063" x2="31.693514" y2="8.957253" />
      <line x1="14.690257" y1="4.013753" x2="18.906453" y2="7.222615" />
      <path d="M 18.644527,6.60673 A 9.0,4.408074578133704 -111.90186488221444 0,1 18.164843,-8.722881" />
      <path d="M 18.164843,-8.722881 A 9.0,4.408074578133704 -111.90186488221444 0,1 23.719501,5.093466" />
      <path d="M 23.719501,5.093466 A 9.0,4.408074578133704 -111.90186488221444 0,1 18.644527,6.60673" />
      <line x1="13.302781" y1="-12.87071" x2="23.986273" y2="-4.73972" />
      <line x1="13.302781" y1="-12.87071" x2="13.059255" y2="-12.710981" />
      <line x1="23.986273" y1="-4.73972" x2="24.229799" y2="-4.209305" />
      <line x1="24.229799" y1="-4.209305" x2="24.229799" y2="10.929034" />
      <line x1="23.986273" y1="11.088764" x2="24.229799" y2="10.929034" />
      <line x1="25.626639" y1="11.39635" x2="24.229799" y2="10.929034" />
      <line x1="31.914507" y1="-8.476979" x2="25.038716" y2="-5.712668" />
      <line x1="25.038716" y1="-5.712668" x2="25.626639" y2="-4.432134" />
      <line x1="31.914507" y1="-8.476979" x2="32.502431" y2="-7.196444" />
      <line x1="32.502431" y1="-7.196444" x2="32.723424" y2="-7.624041" />
      <line x1="25.626639" y1="-4.432134" x2="24.229799" y2="-4.209305" />
      <line x1="13.868172" y1="-14.214344" x2="25.038716" y2="-5.712668" />
      <line x1="20.743963" y1="-16.978654" x2="31.914507" y2="-8.476979" />
      <line x1="13.868172" y1="-14.214344" x2="13.302781" y2="-12.87071" />
      <path d="M 19.048986,6.027584 A 8.5,4.163181546015164 -111.90186488221444 0,1 15.878333,-8.940085" />
      <path d="M 15.878333,-8.940085 A 8.5,4.163181546015164 -111.90186488221444 0,1 18.59595,-8.450382" />
      <path d="M 18.59595,-8.450382 A 8.5,4.163181546015164 -111.90186488221444 0,1 23.842017,4.598391" />
      <path d="M 23.842017,4.598391 A 8.5,4.163181546015164 -111.90186488221444 0,1 22.219638,6.832925" />
      <path d="M 22.219638,6.832925 A 8.5,4.163181546015164 -111.90186488221444 0,1 19.048986,6.027584" />
      <line x1="25.038716" y1="-5.712668" x2="23.986273" y2="-4.73972" />
      <line x1="31.914507" y1="-8.476979" x2="32.479898" y2="-8.154456" />
      <path d="M 26.329235,1.85105 A 7.0,3.4285024496595473 -111.90186488221444 0,1 22.382033,-8.635061" />
      <path d="M 22.382033,-8.635061 A 7.0,3.4285024496595473 -111.90186488221444 0,1 22.520903,-9.089457" />
      <path d="M 27.117076,2.342808 A 7.0,3.4285024496595473 -111.90186488221444 0,1 26.702323,2.110987" />
      <path d="M 26.702323,2.110987 A 7.0,3.4285024496595473 -111.90186488221444 0,1 26.329235,1.85105" />
      <path d="M 19.857902,5.702371 A 8.5,4.163181546015164 -111.90186488221444 0,1 16.687249,-9.265298" />
      <path d="M 16.687249,-9.265298 A 8.50000009184906,4.163181591001554 -111.90186488221444 1,1 23.028555,6.507712" />
      <path d="M 23.028555,6.507712 A 8.5,4.163181546015164 -111.90186488221444 0,1 19.857902,5.702371" />
      <path d="M 23.902485,2.826689 A 7.0,3.4285024496595473 -111.90186488221444 0,1 21.29136,-9.499626" />
      <path d="M 21.29136,-9.499626 A 7.0,3.4285024496595473 -111.90186488221444 0,1 22.702151,-9.496403" />
      <path d="M 27.52957,2.511049 A 7.0,3.4285024496595473 -111.90186488221444 0,1 26.513611,3.489911" />
      <path d="M 26.513611,3.489911 A 7.0,3.4285024496595473 -111.90186488221444 0,1 23.902485,2.826689" />
      <path d="M 19.857902,0.287363 A 2.0,0.9795721284741564 -111.90186488221444 0,1 19.111866,-3.234441" />
      <path d="M 19.111866,-3.234441 A 2.000000267212048,0.9795722593508938 -111.90186488221444 1,1 20.603938,0.476856" />
      <path d="M 20.603938,0.476856 A 2.0,0.9795721284741564 -111.90186488221444 0,1 19.857902,0.287363" />
      <path d="M 23.902485,0.743994 A 4.5,2.204037289066852 -111.90186488221444 0,1 22.223905,-7.180066" />
      <path d="M 22.223905,-7.180066 A 4.5,2.204037289066852 -111.90186488221444 0,1 22.455493,-7.244588" />
      <path d="M 25.792868,1.056614 A 4.5,2.204037289066852 -111.90186488221444 0,1 25.581066,1.170351" />
      <path d="M 25.581066,1.170351 A 4.5,2.204037289066852 -111.90186488221444 0,1 23.902485,0.743994" />
      <path d="M 21.475736,-0.363062 A 2.0,0.9795721284741564 -111.90186488221444 0,1 20.7297,-3.884867" />
      <path d="M 20.7297,-3.884867 A 2.0000000807033476,0.9795721680015314 -111.90186488221444 1,1 22.221771,-0.17357" />
      <path d="M 22.221771,-0.17357 A 2.0,0.9795721284741564 -111.90186488221444 0,1 21.475736,-0.363062" />
      <path d="M 21.475736,1.719633 A 4.5,2.204037289066852 -111.90186488221444 0,1 19.797155,-6.204427" />
      <path d="M 19.797155,-6.204427 A 4.5,2.204037289066852 -111.90186488221444 0,1 23.331044,-3.289736" />
      <path d="M 23.687257,-2.40371 A 4.5,2.204037289066852 -111.90186488221444 0,1 23.154316,2.14599" />
      <path d="M 23.154316,2.14599 A 4.5,2.204037289066852 -111.90186488221444 0,1 21.475736,1.719633" />
      <path d="M -21.191004,-4.824567 A 9.0,4.408074578133704 -111.90186488221444 0,1 -16.11603,8.657575" />
      <path d="M -16.11603,8.657575 A 9.0,4.408074578133704 -111.90186488221444 1,1 -21.670689,-5.158772" />
      <path d="M -21.670689,-5.158772 A 9.0,4.408074578133704 -111.90186488221444 0,1 -21.191004,-4.824567" />
      <line x1="-15.849255" y1="-1.175608" x2="-26.532754" y2="-9.306604" />
      <path d="M -26.532754,-9.306604 C -26.613928,-9.25336 -26.695102,-9.200117 -26.776276,-9.146874" />
      <path d="M -15.605733,14.493143 C -15.686908,14.546386 -15.768083,14.59963 -15.849258,14.652873" />
      <path d="M -15.605733,-0.645198 L -15.605733,14.493143" />
      <path d="M -15.849255,-1.175608 C -15.768081,-0.998805 -15.686907,-0.822001 -15.605733,-0.645198" />
      <line x1="-21.191004" y1="-4.824567" x2="-20.786546" y2="-4.570634" />
      <path d="M -20.786546,-4.570634 A 8.5,4.163181546015165 68.09813511778556 0,0 -21.239581,-4.886273" />
      <path d="M -21.239581,-4.886273 A 8.5,4.163181546015165 68.09813511778556 0,0 -23.957199,-5.375976" />
      <path d="M -23.957199,-5.375976 A 8.5,4.163181546015165 68.09813511778556 0,0 -20.786546,9.591693" />
      <path d="M -20.786546,-4.570634 A 8.5,4.163181546015164 -111.90186488221444 0,1 -15.993515,8.1625" />
      <path d="M -15.993515,8.1625 A 8.5,4.163181546015164 -111.90186488221444 0,1 -17.615893,10.397034" />
      <path d="M -17.615893,10.397034 A 8.5,4.163181546015164 -111.90186488221444 0,1 -20.786546,9.591693" />
      <line x1="-20.382088" y1="-6.399397" x2="-14.784984" y2="-2.139554" />
      <path d="M -14.785009,-2.139394 L -15.849255,-1.175608" />
      <path d="M -25.97933,-10.659166 L -26.532754,-9.306604" />
      <line x1="-20.382088" y1="-6.399397" x2="-25.979191" y2="-10.65924" />
      <path d="M -14.785068,-2.139523 C -14.588941,-1.712555 -14.39281,-1.285589 -14.196677,-0.858624" />
      <path d="M -15.605733,-0.645198 C -15.163253,-0.712169 -14.720773,-0.77914 -14.278294,-0.846112 C -14.251982,-0.850098 -14.218106,-0.85523 -14.196768,-0.858463" />
      <path d="M -14.196768,-0.858591 L -14.196768,14.969893" />
      <path d="M -15.605733,14.493143 L -14.196768,14.969766" />
      <path d="M -14.196677,14.969859 C -14.392814,15.098268 -14.588949,15.226684 -14.78508,15.355107" />
      <line x1="-20.786546" y1="9.591693" x2="-19.97763" y2="9.26648" />
      <path d="M -19.97763,-4.895847 A 8.5,4.163181546015167 -111.90186488221441 0,1 -16.806977,10.071821" />
      <path d="M -16.806977,10.071821 A 8.5,4.163181546015167 -111.90186488221441 0,1 -19.97763,9.26648" />
      <line x1="-20.786546" y1="-4.570634" x2="-19.97763" y2="-4.895847" />
      <path d="M -14.784984,-2.139554 C -12.362952,-3.033608 -9.711611,-3.681456 -6.964403,-4.184804" />
      <line x1="-13.506296" y1="-9.163708" x2="-6.964403" y2="-4.184804" />
      <line x1="-13.506296" y1="-9.163708" x2="-20.382088" y2="-6.399397" />
      <path d="M -14.196678,-0.858624 C -11.776096,-1.749152 -9.096755,-2.391932 -6.293363,-2.891074" />
      <path d="M -6.293363,-2.891074 L -6.109319,-3.590903" />
      <path d="M -6.109319,-3.590903 Q -6.538495,-3.889107 -6.964403,-4.184804" />
      <path d="M -14.196678,14.96986 C -8.018284,12.696843 -0.154425,12.037942 7.157402,11.26147" />
      <path d="M -6.293307,0.659663 C -6.288065,0.922872 -6.275966,1.20726 -6.247071,1.486972 C -6.21874,1.768408 -6.173572,2.044247 -6.111566,2.314488 C -5.98724,2.854748 -5.793296,3.359994 -5.529736,3.830228 C -5.085444,4.624459 -4.437114,5.295497 -3.655835,5.831465 C -2.874724,6.369198 -1.968187,6.778294 -1.002953,7.098905 C 0.270732,7.520468 1.645478,7.794049 3.053662,7.984892 C 4.39682,8.165687 5.773606,8.268547 7.157402,8.317752" />
      <path d="M -6.293363,-2.891074 C -6.293421,-2.289105 -6.293255,-1.736761 -6.295169,-1.17602 C -6.295516,-0.614563 -6.305591,-0.034238 -6.293307,0.659663" />
      <path d="M -19.97763,-4.895847 A 8.5,4.163181546015167 68.09813511778559 0,0 -23.148282,-5.701189" />
      <path d="M -23.148282,-5.701189 A 8.5,4.163181546015167 68.09813511778559 0,0 -19.97763,9.26648" />
      <path d="M -22.66747,-12.37052 L -22.289881,-12.601822" />
      <path d="M -22.289881,-12.601822 Q -21.106208,-13.342518 -20.04819,-14.142611" />
      <line x1="-13.506296" y1="-9.163708" x2="-20.04819" y2="-14.142611" />
      <path d="M -20.049429,-14.200439 Q -20.047033,-14.170183 -20.04819,-14.142611" />
      <line x1="-19.97763" y1="3.851472" x2="-19.97763" y2="9.26648" />
      <path d="M -19.97763,3.851472 A 2.0,0.9795721284741564 68.09813511778556 0,0 -19.231594,4.040964" />
      <path d="M -19.231594,4.040964 A 2.0,0.9795721284741564 68.09813511778556 0,0 -19.97763,0.51916" />
      <line x1="-19.97763" y1="-4.895847" x2="-19.97763" y2="0.51916" />
      <path d="M -5.926183,-3.502421 L -6.109319,-3.590903" />
      <line x1="-12.272506" y1="-8.332479" x2="-7.682259" y2="-4.838935" />
      <line x1="-12.69738" y1="-8.655842" x2="-13.506296" y2="-9.163708" />
      <path d="M 7.157402,11.26147 A 19.5,10.786530509214913 180.0 0,0 18.061913,7.830528" />
      <path d="M 7.157402,8.317752 C 8.484995,8.365237 9.821366,8.295735 11.129588,8.107255 C 12.43715,7.919224 13.713947,7.610871 14.905133,7.19524 C 16.288977,6.713613 17.559291,6.08483 18.637394,5.36246" />
      <path d="M -5.059519,3.204676 C -4.734241,3.697367 -4.316853,4.129798 -3.828971,4.500626" />
      <path d="M -3.828971,4.500626 C -2.995002,5.135124 -1.96346,5.591467 -0.843985,5.933981 C 0.387763,6.309431 1.726519,6.552186 3.102353,6.718945 C 3.732639,6.794332 4.370234,6.854557 5.015138,6.89962 C 5.65821,6.944734 6.314542,6.978765 6.946813,6.994767 C 6.998952,6.995882 7.05109,6.996998 7.103229,6.998114" />
      <path d="M -19.97763,3.851472 A 2.0,0.9795721284741565 -111.90186488221444 0,1 -20.723665,0.329668" />
      <path d="M -20.723665,0.329668 A 2.0,0.9795721284741565 -111.90186488221444 0,1 -19.97763,0.51916" />
      <path d="M -1.896957,-7.077337 A 15.0,8.297331160934549 180.0 0,0 -7.735171,-4.840962" />
      <path d="M -7.735171,-4.840962 A 15.0,8.297331160934549 180.0 0,0 -8.095356,-4.608068" />
      <path d="M -1.021225,-7.412793 A 2.2499999999999982,1.244599674140181 -3.3849831023676274e-15 0,1 -1.896957,-7.077337" />
      <path d="M -14.777944,-6.686787 Q -14.597239,-6.780019 -14.415596,-6.883156" />
      <path d="M -14.415596,-6.883156 C -13.861817,-7.19498 -13.299394,-7.582686 -12.736984,-7.986175 C -12.710636,-8.004688 -12.684288,-8.023201 -12.65794,-8.041714" />
      <path d="M -18.359796,3.201046 A 2.0,0.9795721284741564 68.09813511778556 0,0 -17.61376,3.390538" />
      <path d="M -17.61376,3.390538 A 2.0,0.9795721284741564 68.09813511778556 0,0 -18.359796,-0.131266" />
      <line x1="-19.97763" y1="0.51916" x2="-18.359796" y2="-0.131266" />
      <line x1="-19.97763" y1="3.851472" x2="-18.359796" y2="3.201046" />
      <line x1="-12.69738" y1="-8.077621" x2="-12.69738" y2="-7.406225" />
      <path d="M -9.597524,-3.394711 A 8.0,3.9182885138966257 68.09813511778556 0,0 -12.69738,-7.406225" />
      <path d="M 18.637394,5.36246 C 18.974527,5.137945 19.140504,4.854799 19.138574,4.587432" />
      <path d="M 7.103229,6.998114 C 8.357158,7.022436 9.600137,6.951331 10.823709,6.767336 C 12.04554,6.584487 13.240426,6.291602 14.357532,5.899572 C 14.998298,5.674948 15.61659,5.41669 16.198386,5.131125 C 16.494574,4.98562 16.782771,4.833009 17.062977,4.673292 C 17.34079,4.514619 17.622105,4.345952 17.843109,4.190708 C 17.844896,4.189443 17.846683,4.188177 17.848469,4.186912" />
      <path d="M 15.907762,3.306848 C 15.809379,3.367913 15.69501,3.44222 15.576438,3.515673" />
      <path d="M 15.576438,3.515673 Q 15.444107,3.597939 15.305507,3.678816" />
      <path d="M 17.848469,4.186912 C 17.93494,4.125633 17.978176,4.08735 18.020402,4.039574 C 18.061008,3.992625 18.091207,3.943742 18.111,3.892925 C 18.149221,3.790867 18.147651,3.691441 18.10629,3.594647 C 18.057203,3.481084 17.963893,3.380949 17.826362,3.294243" />
      <path d="M -18.359796,3.201046 A 2.0,0.9795721284741565 -111.90186488221444 0,1 -19.105832,-0.320758" />
      <path d="M -19.105832,-0.320758 A 2.0,0.9795721284741565 -111.90186488221444 0,1 -18.359796,-0.131266" />
      <path d="M -13.203714,-7.752855 A 8.0,3.9182885138966257 -111.90186488221444 0,1 -12.69738,-7.406225" />
      <path d="M -1.896957,-9.184184 C -3.132052,-8.941526 -4.312184,-8.618952 -5.378145,-8.241945 C -6.656025,-7.790721 -7.765032,-7.263936 -8.655545,-6.715654 C -9.548033,-6.166606 -10.224369,-5.597856 -10.691185,-5.041229 C -11.256162,-4.366792 -11.518939,-3.711352 -11.519047,-3.076819" />
      <path d="M -11.519047,-3.076819 Q -11.517829,-2.553074 -11.284338,-2.035884" />
      <path d="M -11.168837,-1.114088 Q -11.236948,-1.578033 -11.284341,-2.035884" />
      <path d="M -0.453643,-10.32381 C -0.453375,-10.228475 -0.473735,-10.13301 -0.514724,-10.037415 C -0.594496,-9.851939 -0.75892,-9.670258 -0.999976,-9.519541 C -1.240104,-9.36837 -1.554545,-9.251042 -1.896957,-9.184184" />
      <path d="M -12.65794,-8.041714 Q -12.135078,-8.411268 -11.509687,-8.78365" />
      <path d="M -2.269228,-10.527293 C -2.273943,-10.526266 -2.278658,-10.52524 -2.283373,-10.524214 C -2.557531,-10.465881 -2.90471,-10.395829 -3.221385,-10.321198 C -3.542008,-10.246387 -3.856079,-10.16718 -4.1636,-10.083577 C -4.777148,-9.916744 -5.364557,-9.734778 -5.925827,-9.537681 C -7.278551,-9.063614 -8.452235,-8.514072 -9.397434,-7.947321 C -10.344622,-7.379681 -11.066049,-6.796745 -11.568893,-6.230892 C -12.028219,-5.710593 -12.313414,-5.204501 -12.424478,-4.712616 C -12.537831,-4.220119 -12.485371,-3.742043 -12.274666,-3.257927" />
      <path d="M -12.274667,-3.257926 C -12.93573,-3.375062 -13.571953,-3.531329 -14.163337,-3.745085 C -14.753707,-3.958718 -15.300751,-4.230645 -15.756249,-4.576984" />
      <path d="M -15.756249,-4.576984 C -16.283022,-4.975397 -16.684601,-5.487003 -16.820771,-6.053431" />
      <path d="M -1.765846,-11.616995 C -1.509352,-11.456656 -1.390558,-11.228593 -1.486914,-11.004406 C -1.531398,-10.899765 -1.6201,-10.804599 -1.753022,-10.718909 C -1.819866,-10.67678 -1.894447,-10.640145 -1.976766,-10.609004 C -2.06186,-10.577475 -2.131939,-10.557211 -2.269228,-10.527293" />
      <line x1="-18.359796" y1="-2.213961" x2="-18.359796" y2="-0.131266" />
      <path d="M -18.359796,5.283742 A 4.5,2.204037289066852 68.09813511778556 0,0 -16.681215,5.710099" />
      <path d="M -16.681215,5.710099 A 4.5,2.204037289066852 68.09813511778556 0,0 -18.359796,-2.213961" />
      <line x1="-18.359796" y1="3.201046" x2="-18.359796" y2="5.283742" />
      <path d="M -10.56144,-2.248757 A 7.0,3.4285024496595473 68.09813511778556 0,0 -13.506296,-6.247934" />
      <line x1="-13.506296" y1="-6.247934" x2="-12.69738" y2="-7.406225" />
      <path d="M -9.461713,3.789094 Q -9.328488,3.890457 -9.190975,3.976984" />
      <path d="M -9.190975,3.976984 Q -8.985318,4.106254 -8.773742,4.201304" />
      <path d="M -9.461713,3.789094 L -8.652797,4.296959" />
      <path d="M -18.359796,5.283742 A 4.5,2.2040372890668523 -111.90186488221444 0,1 -20.038377,-2.640318" />
      <path d="M -20.038377,-2.640318 A 4.5,2.2040372890668523 -111.90186488221444 0,1 -18.359796,-2.213961" />
      <path d="M -14.5297,-6.843643 A 7.0,3.4285024496595473 -111.90186488221444 0,1 -13.506296,-6.247934" />
      <path d="M -12.158955,-3.098958 L -12.274666,-3.257926" />
      <path d="M -11.351049,-2.103117 Q -11.769056,-2.628062 -12.158956,-3.098959" />
      <path d="M -11.351049,-2.103117 L -11.284342,-2.03589" />
      <path d="M -11.869794,-1.199718 C -11.718503,-1.539982 -11.53928,-1.832201 -11.351049,-2.103117" />
      <path d="M -9.461713,3.789094 C -10.127302,3.287327 -10.66687,2.513553 -11.037404,1.696345 C -11.471948,0.743923 -11.714148,-0.259448 -11.869804,-1.199736" />
      <path d="M -12.358864,-1.778408 C -12.322099,-2.221447 -12.246902,-2.657756 -12.158956,-3.098959" />
      <path d="M -12.358861,-1.778406 C -12.988395,-1.927862 -13.602894,-2.113565 -14.184064,-2.350127 C -14.764329,-2.58658 -15.312645,-2.875117 -15.786143,-3.228669 C -16.255802,-3.578647 -16.650222,-3.997637 -16.891089,-4.456574 C -17.133801,-4.913297 -17.211356,-5.406522 -17.097016,-5.833699" />
      <path d="M -17.097016,-5.833699 Q -17.025641,-6.103297 -16.865987,-6.327499" />
      <path d="M -15.933046,4.308103 A 4.5,2.204037289066852 68.09813511778556 0,0 -14.254465,4.73446" />
      <path d="M -14.254465,4.73446 A 4.5,2.204037289066852 68.09813511778556 0,0 -15.933046,-3.1896" />
      <line x1="-18.359796" y1="-2.213961" x2="-15.933046" y2="-3.1896" />
      <line x1="-18.359796" y1="5.283742" x2="-15.933046" y2="4.308103" />
      <line x1="-15.933046" y1="-5.272295" x2="-13.506296" y2="-6.247934" />
      <path d="M -15.933046,6.390798 A 7.0,3.4285024496595473 68.09813511778556 0,0 -13.32192,7.05402" />
      <path d="M -13.32192,7.05402 A 7.0,3.4285024496595473 68.09813511778556 0,0 -15.933046,-5.272295" />
      <line x1="-9.461713" y1="3.789094" x2="-15.933046" y2="6.390798" />
      <path d="M -15.933046,4.308103 A 4.5,2.204037289066852 -111.90186488221444 0,1 -17.611627,-3.615957" />
      <path d="M -17.611627,-3.615957 A 4.5,2.204037289066852 -111.90186488221444 0,1 -15.933046,-3.1896" />
      <path d="M -15.933046,6.390798 A 7.0,3.4285024496595478 -111.90186488221444 0,1 -18.544172,-5.935517" />
      <path d="M -18.544172,-5.935517 A 7.0,3.4285024496595478 -111.90186488221444 0,1 -15.933046,-5.272295" />
      <path d="M -11.869808,-1.199735 Q -12.118162,-1.496271 -12.358862,-1.778406" />
      <line x1="-15.933046" y1="-5.272295" x2="-15.933046" y2="-3.1896" />
      <line x1="-15.933046" y1="4.308103" x2="-15.933046" y2="6.390798" />
      <line x1="18.59595" y1="-8.450382" x2="18.164843" y2="-8.722881" />
      <line x1="23.842017" y1="4.598391" x2="23.719501" y2="5.093466" />
      <line x1="22.382033" y1="-8.635061" x2="22.627064" y2="-9.625211" />
      <line x1="26.702323" y1="2.110987" x2="27.564538" y2="2.655986" />
      <line x1="15.878333" y1="-8.940085" x2="16.687249" y2="-9.265298" />
      <line x1="22.219638" y1="6.832925" x2="23.028555" y2="6.507712" />
      <line x1="21.29136" y1="-9.499626" x2="23.718109" y2="-10.475265" />
      <line x1="26.513611" y1="3.489911" x2="28.940361" y2="2.514272" />
      <line x1="19.111866" y1="-3.234441" x2="20.7297" y2="-3.884867" />
      <line x1="20.603938" y1="0.476856" x2="22.221771" y2="-0.17357" />
      <line x1="19.797155" y1="-6.204427" x2="22.223905" y2="-7.180066" />
      <line x1="23.154316" y1="2.14599" x2="25.581066" y2="1.170351" />
      <line x1="-21.239581" y1="-4.886273" x2="-21.670689" y2="-5.158772" />
      <line x1="-15.993515" y1="8.1625" x2="-16.11603" y2="8.657575" />
      <line x1="-17.615893" y1="10.397034" x2="-16.806977" y2="10.071821" />
      <line x1="-23.957199" y1="-5.375976" x2="-23.148282" y2="-5.701189" />
      <path d="M -23.037377,-12.136095 L -22.289881,-12.601822" />
      <line x1="-7.735171" y1="-4.840962" x2="-8.482912" y2="-4.375174" />
      <path d="M -14.415596,-6.883156 Q -14.788708,-6.671466 -15.167629,-6.454381" />
      <line x1="-19.231594" y1="4.040964" x2="-17.61376" y2="3.390538" />
      <path d="M -6.311023,2.611587 L -3.828971,4.500627" />
      <line x1="-20.723665" y1="0.329668" x2="-19.105832" y2="-0.320758" />
      <line x1="-11.519047" y1="0.668381" x2="-11.519047" y2="-3.076818" />
      <path d="M -15.756249,-4.576984 L -18.238302,-6.466024" />
      <path d="M 15.576438,3.515673 Q 15.239547,3.7248 14.886539,3.944303" />
      <path d="M -9.190975,3.976984 L -8.361894,4.498789" />
      <path d="M -17.097016,-5.833699 Q -16.955016,-6.374289 -16.820012,-6.90362" />
      <line x1="-16.681215" y1="5.710099" x2="-14.254465" y2="4.73446" />
      <line x1="-13.32192" y1="7.05402" x2="-6.329018" y2="4.242627" />
      <line x1="-20.038377" y1="-2.640318" x2="-17.611627" y2="-3.615957" />
      <line x1="-18.544172" y1="-5.935517" x2="-16.117422" y2="-6.911156" />
      <line x1="7.157402" y1="8.317752" x2="7.157402" y2="11.26147" />
      <path d="M 7.157402,11.26147 L 6.968866,11.551312" />
      <path d="M -5.926193,0.038153 L -6.293307,0.659663" />
      <line x1="18.637394" y1="5.36246" x2="18.637394" y2="7.455134" />
      <path d="M 7.103229,6.998114 L 7.157402,8.317752" />
      <line x1="-1.896957" y1="-7.077337" x2="-2.255484" y2="-6.76064" />
      <path d="M -12.65794,-8.041714 L -13.599186,-7.479669" />
      <path d="M 17.848469,4.186912 L 18.637394,5.36246" />
      <line x1="-1.896957" y1="-9.184184" x2="-1.896957" y2="-7.077337" />
      <path d="M 15.907762,3.306848 L 15.139754,3.782113" />
      <path d="M -2.269228,-10.527293 L -1.896957,-9.184184" />
    </g>
  </g>
</svg>